<svg width="241" height="53" viewBox="0 0 241 53" fill="none" xmlns="http://www.w3.org/2000/svg">
<g clip-path="url(#clip0_3526_900)">
<path d="M28.7455 28.7438H24.0618L24.0391 24.06L28.7228 24.0374L28.7455 28.7438Z" fill="#008CFF"/>
<mask id="mask0_3526_900" style="mask-type:luminance" maskUnits="userSpaceOnUse" x="0" y="0" width="241" height="53">
<path d="M241 0H0V52.781H241V0Z" fill="white"/>
</mask>
<g mask="url(#mask0_3526_900)">
<path d="M28.7213 28.7211H14.384C11.545 28.7234 8.76924 27.8835 6.40781 26.3077C4.04637 24.7319 2.20544 22.4911 1.11795 19.8687C0.0304661 17.2463 -0.254694 14.3603 0.298557 11.5758C0.851807 8.79132 2.2186 6.23352 4.22599 4.22607C6.23338 2.21862 8.79113 0.851744 11.5756 0.298403C14.3601 -0.254937 17.2461 0.0301292 19.8685 1.11753C22.4909 2.20493 24.7318 4.04579 26.3077 6.40718C27.8836 8.76856 28.7235 11.5443 28.7213 14.3833V28.7211ZM14.3599 4.70647C11.8128 4.73437 9.37968 5.76659 7.58953 7.57872C5.79938 9.39084 4.79692 11.8364 4.8001 14.3836C4.80327 16.9308 5.81182 19.3739 7.60648 21.1815C9.40114 22.9892 11.8368 24.0153 14.384 24.0369H24.0376V14.3833C24.0347 11.8176 23.0141 9.35779 21.1998 7.54365C19.3854 5.72952 16.9256 4.70916 14.3599 4.70647Z" fill="#008CFF"/>
<path d="M38.4197 52.7585C34.6126 52.7537 30.9629 51.2391 28.271 48.547C25.5792 45.8549 24.065 42.205 24.0605 38.398V24.0615H38.3961C42.2017 24.0584 45.8527 25.5672 48.5459 28.256C51.2391 30.9447 52.7539 34.5933 52.757 38.3989C52.7602 42.2045 51.2514 45.8555 48.5626 48.5488C45.8738 51.242 42.2253 52.7567 38.4197 52.7599M28.742 28.7453V38.398C28.7397 40.3106 29.3049 42.181 30.3661 43.7723C31.4273 45.3636 32.9368 46.6042 34.7034 47.3372C36.47 48.0702 38.4144 48.2626 40.2905 47.89C42.1665 47.5175 43.8898 46.5967 45.2423 45.2442C46.5948 43.8917 47.5156 42.1684 47.8881 40.2924C48.2607 38.4163 48.0683 36.4719 47.3353 34.7053C46.6023 32.9387 45.3617 31.4292 43.7704 30.368C42.1791 29.3068 40.3087 28.7416 38.3961 28.7439L28.742 28.7453Z" fill="#008CFF"/>
<path d="M48.097 44.0512L48.0743 38.421C48.0716 35.8551 47.0511 33.3951 45.2368 31.5808C43.4225 29.7664 40.9625 28.746 38.3966 28.7433L24.0597 28.7206L24.037 26.3789V14.3832C24.0343 11.8173 23.0138 9.35735 21.1995 7.54301C19.3852 5.72867 16.9252 4.70819 14.3593 4.7055H8.60547L13.43 0H38.4202C42.2275 0.00441207 45.8775 1.51882 48.5696 4.211C51.2617 6.90318 52.776 10.5533 52.7803 14.3605V39.3674L48.097 44.0512ZM28.7203 24.0605H38.398C41.9915 24.0577 45.4544 25.4073 48.0984 27.8408V14.3605C48.0957 11.7947 47.0752 9.33466 45.2609 7.52032C43.4465 5.70598 40.9865 4.6855 38.4207 4.68281H24.9404C27.3738 7.32691 28.7231 10.7898 28.7203 14.3832V24.0605Z" fill="#008CFF"/>
<path d="M39.3503 52.7804H14.3601C10.5528 52.7761 6.90265 51.2618 4.21054 48.5696C1.51842 45.8774 0.004167 42.2272 0 38.4199L0 13.413L4.68373 8.72925L4.70642 14.3599C4.70912 16.9258 5.7296 19.3858 7.54394 21.2001C9.35828 23.0145 11.8183 24.0349 14.3841 24.0376L28.722 24.0603L28.7447 26.402V38.3972C28.7474 40.9631 29.7678 43.4231 31.5822 45.2374C33.3965 47.0517 35.8565 48.0722 38.4224 48.0749H44.1748L39.3503 52.7804ZM4.68373 24.9406V38.4199C4.68631 40.9858 5.70675 43.4459 7.52111 45.2602C9.33548 47.0746 11.7955 48.095 14.3614 48.0976H27.8399C25.4066 45.4536 24.0573 41.9909 24.06 38.3977V28.72H14.3823C10.789 28.7226 7.32626 27.373 4.68235 24.9396" fill="#008CFF"/>
<path d="M81.8688 12.8833C90.3754 12.8833 94.5984 16.9878 94.5984 25.1374V40.544C94.5984 42.6277 94.1229 43.2209 92.4573 43.9349C90.0772 44.9462 86.5085 45.481 81.7498 45.481C76.6933 45.481 73.2431 44.7077 71.34 43.1019C69.4359 41.5553 68.4844 39.1159 68.4844 35.8445C68.4844 28.7659 72.2916 26.2677 81.9878 26.2677C82.4045 26.2677 84.3081 26.3867 87.6981 26.565V24.898C87.6981 21.0311 86.0311 19.009 81.7498 19.009C78.8347 19.009 76.7527 19.9607 75.5037 21.8641C74.6114 23.1144 74.3142 23.2325 72.9458 22.7564L70.5667 21.7451C69.2577 21.1501 68.8997 20.2583 69.5554 19.0678C71.6965 14.9638 75.801 12.8815 81.8688 12.8815M87.6981 32.2142C83.5344 32.0355 81.3928 31.9169 81.2154 31.9169C76.9322 31.9169 75.5051 33.1672 75.5051 35.7834C75.5051 38.4607 76.7553 39.7693 81.0969 39.7693C83.0905 39.8075 85.083 39.6481 87.0452 39.2933C87.4619 39.1146 87.7 38.8765 87.7 38.4598L87.6981 32.2142Z" fill="#008CFF"/>
<path d="M108.045 42.7455C108.045 44.1138 107.569 44.5898 106.201 44.5898H102.989C101.561 44.5898 101.145 44.1138 101.145 42.7455V2.41488C101.145 1.04611 101.561 0.570557 102.989 0.570557H106.201C107.569 0.570557 108.045 1.04611 108.045 2.41488V42.7455Z" fill="#008CFF"/>
<path d="M139.395 13.7762C140.763 13.7762 141.239 14.1929 141.239 15.5608V40.069C141.239 41.9721 140.822 42.6269 138.92 43.3997C135.198 44.8182 131.243 45.5241 127.26 45.4806C118.932 45.4806 114.828 41.1975 114.828 33.5238V15.5575C114.828 14.1892 115.304 13.7729 116.672 13.7729H119.943C121.311 13.7729 121.728 14.1897 121.728 15.5575V33.2877C121.728 37.2129 123.87 39.1762 128.211 39.1762C130.06 39.205 131.903 38.9646 133.683 38.4627C133.889 38.3896 134.064 38.2509 134.182 38.0681C134.301 37.8853 134.356 37.6685 134.338 37.4514V15.5608C134.338 14.1925 134.814 13.7762 136.183 13.7762H139.395Z" fill="#008CFF"/>
<path d="M161.941 12.8838C170.269 12.8838 174.314 17.167 174.314 24.8406V42.7472C174.314 44.1145 173.838 44.5906 172.47 44.5906H169.198C167.831 44.5906 167.414 44.1145 167.414 42.7472V25.0184C167.414 21.152 165.272 19.1891 160.931 19.1891C159.001 19.1831 157.08 19.4431 155.221 19.9619C155.094 19.9977 154.983 20.0766 154.907 20.1852C154.831 20.2938 154.795 20.4253 154.805 20.5574V42.7472C154.805 44.1145 154.388 44.5906 153.02 44.5906H149.749C148.38 44.5906 147.904 44.1145 147.904 42.7472V18.2982C147.904 16.3951 148.321 15.6811 150.224 14.9078C153.615 13.5395 157.482 12.8852 161.943 12.8852" fill="#008CFF"/>
<path d="M192.696 12.8833C201.203 12.8833 205.426 16.9878 205.426 25.1374V40.544C205.426 42.6277 204.951 43.2209 203.285 43.9349C200.905 44.9462 197.336 45.481 192.578 45.481C187.521 45.481 184.071 44.7077 182.168 43.1019C180.264 41.5553 179.312 39.1159 179.312 35.8445C179.312 28.7659 183.12 26.2677 192.816 26.2677C193.233 26.2677 195.136 26.3867 198.526 26.565V24.898C198.526 21.0311 196.859 19.009 192.578 19.009C189.663 19.009 187.581 19.9607 186.332 21.8641C185.44 23.1144 185.142 23.2325 183.774 22.7564L181.395 21.7451C180.086 21.1501 179.728 20.2583 180.383 19.0678C182.525 14.9638 186.629 12.8815 192.697 12.8815M198.526 32.2142C194.363 32.0355 192.221 31.9169 192.044 31.9169C187.76 31.9169 186.333 33.1672 186.333 35.7834C186.333 38.4607 187.583 39.7693 191.925 39.7693C193.918 39.8075 195.911 39.6481 197.873 39.2933C198.29 39.1146 198.528 38.8765 198.528 38.4598L198.526 32.2142Z" fill="#008CFF"/>
<path d="M227.974 0.570068C229.401 0.570068 229.877 1.04562 229.877 2.47412V5.09127C229.877 6.51839 229.401 6.9944 227.974 6.9944C222.977 6.9944 221.253 8.66138 221.253 13.1807V13.7757H228.093C229.462 13.7757 229.878 14.1925 229.878 15.5603V18.2969C229.878 19.6653 229.461 20.1413 228.093 20.1413H221.253V42.745C221.253 44.1133 220.836 44.5893 219.408 44.5893H216.255C214.827 44.5893 214.352 44.1133 214.352 42.745V20.1403H210.782C209.415 20.1403 208.998 19.6643 208.998 18.296V15.5594C208.998 14.1925 209.415 13.7748 210.782 13.7748H214.352V13.1807C214.352 4.91254 218.694 0.748805 227.439 0.570068H227.974Z" fill="#008CFF"/>
<path d="M237.372 2.23547C240.168 2.23547 241 3.12823 241 5.80511V6.3404C241 9.13675 240.167 9.96884 237.372 9.96884H236.956C234.278 9.96884 233.326 9.13536 233.326 6.3404V5.80511C233.326 3.12823 234.16 2.23547 236.956 2.23547H237.372ZM238.799 13.776C240.168 13.776 240.644 14.1928 240.644 15.5606V42.7434C240.644 44.1117 240.168 44.5877 238.799 44.5877H235.528C234.16 44.5877 233.743 44.1117 233.743 42.7434V15.5625C233.743 14.1942 234.16 13.7779 235.528 13.7779L238.799 13.776Z" fill="#008CFF"/>
</g>
</g>
<defs>
<clipPath id="clip0_3526_900">
<rect width="241" height="52.781" fill="white"/>
</clipPath>
</defs>
</svg>
