<svg width="39" height="39" viewBox="0 0 39 39" fill="none" xmlns="http://www.w3.org/2000/svg">
<path fill-rule="evenodd" clip-rule="evenodd" d="M19.3574 38C29.5747 38 37.8574 29.7173 37.8574 19.5C37.8574 9.28273 29.5747 1 19.3574 1C9.14015 1 0.857422 9.28273 0.857422 19.5C0.857422 29.7173 9.14015 38 19.3574 38Z" stroke="#008CFF" stroke-width="1.58571"/>
<path d="M25.1729 10.1619H22.53C21.3618 10.1619 20.2415 10.6259 19.4154 11.452C18.5894 12.278 18.1253 13.3984 18.1253 14.5666V17.2095H15.4824V20.7333H18.1253V27.7809H21.6491V20.7333H24.2919L25.1729 17.2095H21.6491V14.5666C21.6491 14.333 21.7419 14.1089 21.9071 13.9437C22.0723 13.7785 22.2964 13.6857 22.53 13.6857H25.1729V10.1619Z" fill="#008CFF"/>
</svg>
