<svg width="39" height="39" viewBox="0 0 39 39" fill="none" xmlns="http://www.w3.org/2000/svg">
<path fill-rule="evenodd" clip-rule="evenodd" d="M19.5 38C29.7173 38 38 29.7173 38 19.5C38 9.28273 29.7173 1 19.5 1C9.28273 1 1 9.28273 1 19.5C1 29.7173 9.28273 38 19.5 38Z" stroke="#008CFF" stroke-width="1.58571"/>
<path d="M23.5533 15.4475C24.9552 15.4475 26.2996 16.0044 27.2909 16.9957C28.2821 17.9869 28.839 19.3314 28.839 20.7332V26.8999H25.3152V20.7332C25.3152 20.2659 25.1296 19.8178 24.7991 19.4874C24.4687 19.1569 24.0206 18.9713 23.5533 18.9713C23.086 18.9713 22.6379 19.1569 22.3074 19.4874C21.977 19.8178 21.7914 20.2659 21.7914 20.7332V26.8999H18.2676V20.7332C18.2676 19.3314 18.8245 17.9869 19.8157 16.9957C20.807 16.0044 22.1514 15.4475 23.5533 15.4475Z" fill="#008CFF"/>
<path d="M14.7426 16.3284H11.2188V26.8998H14.7426V16.3284Z" fill="#008CFF"/>
<path d="M12.9807 13.6857C13.9537 13.6857 14.7426 12.8968 14.7426 11.9238C14.7426 10.9507 13.9537 10.1619 12.9807 10.1619C12.0076 10.1619 11.2188 10.9507 11.2188 11.9238C11.2188 12.8968 12.0076 13.6857 12.9807 13.6857Z" fill="#008CFF"/>
</svg>
