<svg width="24" height="29" viewBox="0 0 24 29" fill="none" xmlns="http://www.w3.org/2000/svg">
<path d="M12 7.2364C12.1062 7.2364 12.2124 7.01876 12.3186 6.85554L15.6106 1.84991C16.5133 0.489684 17.5752 0 18.5841 0C20.6549 0 23.3628 2.06754 23.3628 4.46154C23.3628 5.22326 23.0973 6.14822 22.354 7.07317L17.469 13.5478C17.3628 13.7111 17.2566 13.8743 17.2566 13.9831C17.2566 14.1463 17.3628 14.2552 17.469 14.4184L22.9912 21.9812C23.6814 22.9606 24 23.7767 24 24.5929C24 26.878 21.4513 29 19.1681 29C18.1062 29 17.0442 28.5103 16.1947 27.1501L12.3717 21.1651C12.2655 21.0019 12.1593 20.7298 12 20.7298C11.8407 20.7298 11.7345 21.0019 11.6283 21.1651L7.80531 27.1501C6.95575 28.5103 5.89381 29 4.83186 29C2.70796 29 0 27.0413 0 24.5929C0 23.7767 0.318584 22.9606 1.00885 21.9812L6.53097 14.4184C6.63717 14.2552 6.74336 14.1463 6.74336 13.9831C6.74336 13.8743 6.63717 13.7111 6.53097 13.5478L1.64602 7.07317C0.902655 6.14822 0.637168 5.22326 0.637168 4.46154C0.637168 2.23077 3.18584 0 5.41593 0C6.42478 0 7.48673 0.489684 8.38938 1.84991L11.6814 6.85554C11.7876 7.01876 11.8938 7.2364 12 7.2364Z" fill="#113569"/>
</svg>
