<svg width="40" height="39" viewBox="0 0 40 39" fill="none" xmlns="http://www.w3.org/2000/svg">
<path fill-rule="evenodd" clip-rule="evenodd" d="M20.2148 38C30.4321 38 38.7148 29.7173 38.7148 19.5C38.7148 9.28273 30.4321 1 20.2148 1C9.99758 1 1.71484 9.28273 1.71484 19.5C1.71484 29.7173 9.99758 38 20.2148 38Z" stroke="#008CFF" stroke-width="1.58571"/>
<path d="M15.457 12.0999V22.6713" stroke="#008CFF" stroke-width="2.11429" stroke-linecap="round" stroke-linejoin="round"/>
<path d="M26.0296 17.3856C27.4892 17.3856 28.6724 16.2023 28.6724 14.7427C28.6724 13.2831 27.4892 12.0999 26.0296 12.0999C24.57 12.0999 23.3867 13.2831 23.3867 14.7427C23.3867 16.2023 24.57 17.3856 26.0296 17.3856Z" stroke="#008CFF" stroke-width="2.11429" stroke-linecap="round" stroke-linejoin="round"/>
<path d="M15.4573 27.9571C16.9169 27.9571 18.1002 26.7739 18.1002 25.3142C18.1002 23.8546 16.9169 22.6714 15.4573 22.6714C13.9977 22.6714 12.8145 23.8546 12.8145 25.3142C12.8145 26.7739 13.9977 27.9571 15.4573 27.9571Z" stroke="#008CFF" stroke-width="2.11429" stroke-linecap="round" stroke-linejoin="round"/>
<path d="M26.0282 17.3855C26.0282 19.4883 25.1929 21.5049 23.706 22.9918C22.2191 24.4787 20.2024 25.3141 18.0996 25.3141" stroke="#008CFF" stroke-width="2.11429" stroke-linecap="round" stroke-linejoin="round"/>
</svg>
