<svg width="30" height="30" viewBox="0 0 30 30" fill="none" xmlns="http://www.w3.org/2000/svg">
<path d="M15 30C6.71652 30 0 23.2835 0 15C0 6.71652 6.71652 0 15 0C23.2835 0 30 6.71652 30 15C30 23.2835 23.2835 30 15 30ZM15 2.54464C8.12277 2.54464 2.54464 8.12277 2.54464 15C2.54464 21.8772 8.12277 27.4554 15 27.4554C21.8772 27.4554 27.4554 21.8772 27.4554 15C27.4554 8.12277 21.8772 2.54464 15 2.54464Z" fill="#00FFDA"/>
<path d="M20.8485 10.7611L16.0739 14.2131V22.5C16.0739 22.6473 15.9534 22.7678 15.8061 22.7678H14.1956C14.0483 22.7678 13.9277 22.6473 13.9277 22.5V13.279C13.9277 13.1919 13.9679 13.1116 14.0382 13.0613L19.5762 9.0234C19.6967 8.93635 19.8641 8.96314 19.9512 9.08032L20.9088 10.3861C20.9958 10.51 20.969 10.6774 20.8485 10.7611Z" fill="#00FFDA"/>
</svg>
