<svg width="179" height="39" viewBox="0 0 179 39" fill="none" xmlns="http://www.w3.org/2000/svg">
<g clip-path="url(#clip0_3003_752)">
<path d="M21.2383 21.2388H17.7775L17.7607 17.778L21.2216 17.7612L21.2383 21.2388Z" fill="white"/>
<mask id="mask0_3003_752" style="mask-type:luminance" maskUnits="userSpaceOnUse" x="0" y="0" width="179" height="39">
<path d="M178.075 0H0V39H178.075V0Z" fill="white"/>
</mask>
<g mask="url(#mask0_3003_752)">
<path d="M21.2215 21.222H10.6276C8.52993 21.2237 6.47889 20.6031 4.73402 19.4388C2.98916 18.2744 1.62889 16.6186 0.82534 14.681C0.021795 12.7433 -0.18891 10.6108 0.219888 8.55334C0.628686 6.49588 1.63861 4.60591 3.12187 3.1226C4.60514 1.6393 6.49507 0.629307 8.55252 0.220443C10.61 -0.188421 12.7425 0.0222147 14.6802 0.825697C16.6179 1.62918 18.2737 2.9894 19.4381 4.73423C20.6025 6.47906 21.2231 8.53008 21.2215 10.6278V21.222ZM10.6098 3.47757C8.72778 3.49819 6.92995 4.2609 5.6072 5.59988C4.28446 6.93886 3.54374 8.74586 3.54608 10.628C3.54843 12.5102 4.29365 14.3153 5.61972 15.651C6.9458 16.9867 8.74552 17.7449 10.6276 17.7608H17.7607V10.6278C17.7585 8.73196 17.0044 6.91444 15.6638 5.57397C14.3232 4.2335 12.5056 3.47956 10.6098 3.47757Z" fill="white"/>
<path d="M28.3893 38.9833C25.5762 38.9798 22.8795 37.8607 20.8904 35.8714C18.9014 33.8822 17.7826 31.1853 17.7793 28.3723V17.7791H28.3718C31.1838 17.7767 33.8816 18.8916 35.8716 20.8783C37.8616 22.8651 38.9809 25.561 38.9832 28.373C38.9855 31.185 37.8707 33.8827 35.8839 35.8727C33.8972 37.8627 31.2013 38.982 28.3893 38.9843M21.2384 21.2399V28.3723C21.2367 29.7856 21.6544 31.1676 22.4385 32.3434C23.2226 33.5192 24.3379 34.4359 25.6433 34.9775C26.9487 35.5191 28.3854 35.6613 29.7716 35.386C31.1578 35.1107 32.4312 34.4303 33.4305 33.431C34.4299 32.4316 35.1102 31.1583 35.3855 29.7721C35.6609 28.3859 35.5187 26.9491 34.9771 25.6438C34.4355 24.3384 33.5187 23.223 32.3429 22.4389C31.1671 21.6548 29.7851 21.2372 28.3718 21.2389L21.2384 21.2399Z" fill="white"/>
<path d="M35.5397 32.5495L35.523 28.3893C35.521 26.4934 34.767 24.6757 33.4263 23.3351C32.0857 21.9945 30.268 21.2404 28.3721 21.2384L17.7785 21.2217L17.7618 19.4914V10.6278C17.7598 8.73186 17.0057 6.91416 15.6651 5.57354C14.3245 4.23293 12.5068 3.47889 10.6109 3.4769H6.35938L9.92421 0H28.3896C31.2027 0.00326009 33.8998 1.12226 35.889 3.11152C37.8781 5.10077 38.9971 7.79783 39.0002 10.611V29.0887L35.5397 32.5495ZM21.2223 17.7783H28.3731C31.0283 17.7763 33.5871 18.7735 35.5408 20.5716V10.611C35.5388 8.71509 34.7847 6.8974 33.4441 5.55678C32.1035 4.21616 30.2858 3.46213 28.3899 3.46014H18.4293C20.2273 5.41387 21.2243 7.97262 21.2223 10.6278V17.7783Z" fill="white"/>
<path d="M29.076 38.9996H10.6107C7.79746 38.9964 5.10038 37.8774 3.11117 35.8882C1.12196 33.8989 0.003079 31.2018 0 28.3886L0 9.91089L3.46082 6.45007L3.47758 10.6106C3.47958 12.5065 4.23361 14.3242 5.57423 15.6648C6.91485 17.0054 8.73254 17.7595 10.6285 17.7615L21.2227 17.7782L21.2395 19.5085V28.3718C21.2415 30.2677 21.9955 32.0854 23.3361 33.426C24.6767 34.7666 26.4944 35.5207 28.3904 35.5227H32.6409L29.076 38.9996ZM3.46082 18.4287V28.3886C3.46272 30.2845 4.21673 32.1023 5.55736 33.4429C6.898 34.7835 8.71575 35.5375 10.6117 35.5394H20.5709C18.773 33.5858 17.776 31.0272 17.778 28.3721V21.2213H10.6271C7.972 21.2232 5.41339 20.226 3.45979 18.428" fill="white"/>
<path d="M60.4943 9.51956C66.7798 9.51956 69.9002 12.5524 69.9002 18.5741V29.9581C69.9002 31.4977 69.5488 31.936 68.3181 32.4636C66.5595 33.2109 63.9226 33.606 60.4063 33.606C56.6701 33.606 54.1207 33.0347 52.7145 31.8481C51.3076 30.7053 50.6045 28.9029 50.6045 26.4856C50.6045 21.2552 53.4176 19.4093 60.5822 19.4093C60.8901 19.4093 62.2967 19.4973 64.8016 19.629V18.3973C64.8016 15.54 63.5698 14.0458 60.4063 14.0458C58.2524 14.0458 56.714 14.7491 55.7911 16.1555C55.1318 17.0793 54.9121 17.1665 53.9011 16.8148L52.1431 16.0676C51.1759 15.6279 50.9114 14.9689 51.3959 14.0893C52.978 11.0568 56.0108 9.51819 60.4943 9.51819M64.8016 23.8032C61.725 23.6711 60.1425 23.5835 60.0115 23.5835C56.8466 23.5835 55.7921 24.5073 55.7921 26.4405C55.7921 28.4187 56.7159 29.3857 59.9239 29.3857C61.397 29.4139 62.8693 29.2961 64.3191 29.0339C64.6271 28.9019 64.8029 28.726 64.8029 28.4181L64.8016 23.8032Z" fill="white"/>
<path d="M79.836 31.5847C79.836 32.5958 79.4846 32.9475 78.4732 32.9475H76.1001C75.0449 32.9475 74.7373 32.5958 74.7373 31.5847V1.7844C74.7373 0.773016 75.0452 0.421631 76.1001 0.421631H78.4732C79.4846 0.421631 79.836 0.773016 79.836 1.7844V31.5847Z" fill="white"/>
<path d="M102.999 10.1793C104.01 10.1793 104.362 10.4872 104.362 11.4979V29.6071C104.362 31.0133 104.054 31.4971 102.648 32.0681C99.898 33.1163 96.9754 33.6379 94.0327 33.6058C87.8791 33.6058 84.8467 30.4409 84.8467 24.7708V11.4955C84.8467 10.4845 85.1981 10.1769 86.2088 10.1769H88.626C89.6371 10.1769 89.945 10.4848 89.945 11.4955V24.5963C89.945 27.4967 91.5274 28.9474 94.7351 28.9474C96.1015 28.9687 97.4637 28.791 98.7789 28.4202C98.9305 28.3662 99.0601 28.2637 99.1476 28.1286C99.235 27.9935 99.2755 27.8334 99.2627 27.6729V11.4979C99.2627 10.4869 99.6141 10.1793 100.625 10.1793H102.999Z" fill="white"/>
<path d="M119.659 9.5199C125.812 9.5199 128.801 12.6848 128.801 18.3548V31.586C128.801 32.5964 128.45 32.9481 127.439 32.9481H125.021C124.011 32.9481 123.703 32.5964 123.703 31.586V18.4862C123.703 15.6293 122.12 14.1789 118.913 14.1789C117.487 14.1744 116.067 14.3666 114.694 14.75C114.599 14.7764 114.517 14.8347 114.461 14.9149C114.405 14.9951 114.378 15.0923 114.386 15.19V31.586C114.386 32.5964 114.078 32.9481 113.067 32.9481H110.65C109.639 32.9481 109.287 32.5964 109.287 31.586V13.5206C109.287 12.1144 109.595 11.5868 111.001 11.0154C113.506 10.0044 116.364 9.52092 119.66 9.52092" fill="white"/>
<path d="M142.384 9.51956C148.669 9.51956 151.79 12.5524 151.79 18.5741V29.9581C151.79 31.4977 151.438 31.936 150.207 32.4636C148.449 33.2109 145.812 33.606 142.296 33.606C138.56 33.606 136.01 33.0347 134.604 31.8481C133.197 30.7053 132.494 28.9029 132.494 26.4856C132.494 21.2552 135.307 19.4093 142.472 19.4093C142.78 19.4093 144.186 19.4973 146.691 19.629V18.3973C146.691 15.54 145.459 14.0458 142.296 14.0458C140.142 14.0458 138.604 14.7491 137.681 16.1555C137.021 17.0793 136.802 17.1665 135.791 16.8148L134.033 16.0676C133.066 15.6279 132.801 14.9689 133.285 14.0893C134.868 11.0568 137.9 9.51819 142.384 9.51819M146.691 23.8032C143.615 23.6711 142.032 23.5835 141.901 23.5835C138.736 23.5835 137.681 24.5073 137.681 26.4405C137.681 28.4187 138.605 29.3857 141.813 29.3857C143.286 29.4139 144.759 29.2961 146.208 29.0339C146.516 28.9019 146.692 28.726 146.692 28.4181L146.691 23.8032Z" fill="white"/>
<path d="M168.448 0.421265C169.503 0.421265 169.855 0.77265 169.855 1.82817V3.76199C169.855 4.81649 169.503 5.16822 168.448 5.16822C164.756 5.16822 163.482 6.39995 163.482 9.7393V10.179H168.536C169.547 10.179 169.855 10.4869 169.855 11.4976V13.5197C169.855 14.5307 169.547 14.8825 168.536 14.8825H163.482V31.5844C163.482 32.5954 163.174 32.9472 162.119 32.9472H159.789C158.734 32.9472 158.383 32.5954 158.383 31.5844V14.8818H155.745C154.735 14.8818 154.427 14.5301 154.427 13.519V11.4969C154.427 10.4869 154.735 10.1783 155.745 10.1783H158.383V9.7393C158.383 3.62992 161.591 0.553334 168.053 0.421265H168.448Z" fill="white"/>
<path d="M175.393 1.65186C177.459 1.65186 178.074 2.31152 178.074 4.28947V4.68499C178.074 6.75122 177.458 7.36606 175.393 7.36606H175.085C173.107 7.36606 172.403 6.75019 172.403 4.68499V4.28947C172.403 2.31152 173.019 1.65186 175.085 1.65186H175.393ZM176.448 10.1792C177.459 10.1792 177.81 10.4871 177.81 11.4978V31.5832C177.81 32.5943 177.459 32.946 176.448 32.946H174.03C173.02 32.946 172.712 32.5943 172.712 31.5832V11.4992C172.712 10.4881 173.02 10.1806 174.03 10.1806L176.448 10.1792Z" fill="white"/>
</g>
</g>
<defs>
<clipPath id="clip0_3003_752">
<rect width="178.075" height="39" fill="white"/>
</clipPath>
</defs>
</svg>
