<svg width="22" height="22" viewBox="0 0 22 22" fill="none" xmlns="http://www.w3.org/2000/svg">
<path d="M21.8041 8.965C21.7484 8.66938 21.5084 8.44525 21.2101 8.4095C20.911 8.37375 20.6257 8.53531 20.5019 8.80962C20.284 9.29088 19.8055 9.62569 19.2507 9.625C18.6354 9.62638 18.1156 9.21113 17.9424 8.64119C17.8379 8.29331 17.4804 8.08706 17.127 8.16956C16.9097 8.22044 16.7042 8.25 16.5 8.25C14.9854 8.24725 13.7528 7.01456 13.75 5.5C13.75 5.29581 13.7796 5.09025 13.8304 4.87369C13.9136 4.52031 13.7067 4.16213 13.3588 4.05762C12.7889 3.88506 12.3736 3.36531 12.375 2.75C12.3743 2.1945 12.7091 1.71669 13.1904 1.49875C13.4647 1.375 13.6262 1.089 13.5905 0.790625C13.5547 0.491562 13.3306 0.251625 13.035 0.195937C12.3791 0.072875 11.6999 0 11 0C4.93213 0.001375 0.001375 4.93213 0 11C0.001375 17.0679 4.93213 21.9986 11 22C17.0679 21.9986 21.9986 17.0679 22 11C22 10.3001 21.9271 9.62088 21.8041 8.965ZM17.8028 17.8028C16.0573 19.547 13.6551 20.625 11 20.625C8.34488 20.625 5.94275 19.547 4.19719 17.8028C2.453 16.0573 1.375 13.6551 1.375 11C1.375 8.34488 2.453 5.94275 4.19719 4.19719C5.94275 2.453 8.34488 1.375 11 1.375C11.1237 1.375 11.2448 1.38806 11.3678 1.39356C11.1382 1.79369 11.0007 2.25431 11 2.75C11.0014 3.77644 11.5706 4.65644 12.4004 5.126C12.3874 5.24837 12.375 5.37075 12.375 5.5C12.3764 7.77631 14.2237 9.62362 16.5 9.625C16.6292 9.625 16.7516 9.61263 16.874 9.59956C17.3436 10.4287 18.2229 10.9986 19.25 11C19.7457 10.9993 20.2063 10.8618 20.6064 10.6322C20.6119 10.7546 20.625 10.8763 20.625 11C20.625 13.6551 19.547 16.0573 17.8028 17.8028Z" fill="#113569"/>
<path d="M8.25 6.875C9.00939 6.875 9.625 6.25939 9.625 5.5C9.625 4.74061 9.00939 4.125 8.25 4.125C7.49061 4.125 6.875 4.74061 6.875 5.5C6.875 6.25939 7.49061 6.875 8.25 6.875Z" fill="#113569"/>
<path d="M5.5 12.375C6.25939 12.375 6.875 11.7594 6.875 11C6.875 10.2406 6.25939 9.625 5.5 9.625C4.74061 9.625 4.125 10.2406 4.125 11C4.125 11.7594 4.74061 12.375 5.5 12.375Z" fill="#113569"/>
<path d="M12.375 17.875C13.1344 17.875 13.75 17.2594 13.75 16.5C13.75 15.7406 13.1344 15.125 12.375 15.125C11.6156 15.125 11 15.7406 11 16.5C11 17.2594 11.6156 17.875 12.375 17.875Z" fill="#113569"/>
<path d="M11.6875 12.375C12.0672 12.375 12.375 12.0672 12.375 11.6875C12.375 11.3078 12.0672 11 11.6875 11C11.3078 11 11 11.3078 11 11.6875C11 12.0672 11.3078 12.375 11.6875 12.375Z" fill="#113569"/>
<path d="M17.1875 15.125C17.5672 15.125 17.875 14.8172 17.875 14.4375C17.875 14.0578 17.5672 13.75 17.1875 13.75C16.8078 13.75 16.5 14.0578 16.5 14.4375C16.5 14.8172 16.8078 15.125 17.1875 15.125Z" fill="#113569"/>
<path d="M7.5625 16.5C7.9422 16.5 8.25 16.1922 8.25 15.8125C8.25 15.4328 7.9422 15.125 7.5625 15.125C7.1828 15.125 6.875 15.4328 6.875 15.8125C6.875 16.1922 7.1828 16.5 7.5625 16.5Z" fill="#113569"/>
</svg>
