<svg width="37" height="37" viewBox="0 0 37 37" fill="none" xmlns="http://www.w3.org/2000/svg">
<path opacity="0.1" fill-rule="evenodd" clip-rule="evenodd" d="M18.5 36C28.165 36 36 28.165 36 18.5C36 8.83502 28.165 1 18.5 1C8.83502 1 1 8.83502 1 18.5C1 28.165 8.83502 36 18.5 36Z" stroke="white" stroke-width="1.5"/>
<path d="M23.9997 9.66699H21.4997C20.3946 9.66699 19.3348 10.106 18.5534 10.8874C17.772 11.6688 17.333 12.7286 17.333 13.8337V16.3337H14.833V19.667H17.333V26.3337H20.6663V19.667H23.1663L23.9997 16.3337H20.6663V13.8337C20.6663 13.6126 20.7541 13.4007 20.9104 13.2444C21.0667 13.0881 21.2787 13.0003 21.4997 13.0003H23.9997V9.66699Z" fill="white"/>
</svg>
