<svg width="37" height="37" viewBox="0 0 37 37" fill="none" xmlns="http://www.w3.org/2000/svg">
<path opacity="0.1" fill-rule="evenodd" clip-rule="evenodd" d="M18.5 36C28.165 36 36 28.165 36 18.5C36 8.83502 28.165 1 18.5 1C8.83502 1 1 8.83502 1 18.5C1 28.165 8.83502 36 18.5 36Z" stroke="white" stroke-width="1.5"/>
<path d="M22.333 14.667C23.6591 14.667 24.9309 15.1938 25.8685 16.1315C26.8062 17.0691 27.333 18.3409 27.333 19.667V25.5003H23.9997V19.667C23.9997 19.225 23.8241 18.801 23.5115 18.4885C23.199 18.1759 22.775 18.0003 22.333 18.0003C21.891 18.0003 21.4671 18.1759 21.1545 18.4885C20.8419 18.801 20.6663 19.225 20.6663 19.667V25.5003H17.333V19.667C17.333 18.3409 17.8598 17.0691 18.7975 16.1315C19.7352 15.1938 21.0069 14.667 22.333 14.667V14.667Z" fill="white"/>
<path d="M14.0003 15.5H10.667V25.5H14.0003V15.5Z" fill="white"/>
<path d="M12.3337 13.0003C13.2541 13.0003 14.0003 12.2541 14.0003 11.3337C14.0003 10.4132 13.2541 9.66699 12.3337 9.66699C11.4132 9.66699 10.667 10.4132 10.667 11.3337C10.667 12.2541 11.4132 13.0003 12.3337 13.0003Z" fill="white"/>
</svg>
