<svg width="195" height="37" viewBox="0 0 195 37" fill="none" xmlns="http://www.w3.org/2000/svg">
<path d="M0 4H12.22C13.4102 4 14.0053 4 14.4948 4.12567C15.908 4.48851 17.0115 5.59204 17.3743 7.00524C17.5 7.49468 17.5 8.08979 17.5 9.28C17.5 15.5286 17.5 18.6529 18.1598 21.2225C20.0647 28.6418 25.8582 34.4353 33.2775 36.3402C35.8471 37 38.9714 37 45.22 37H151.28C157.529 37 160.653 37 163.222 36.3402C170.642 34.4353 176.435 28.6418 178.34 21.2225C179 18.6529 179 15.5286 179 9.28C179 8.08979 179 7.49468 179.126 7.00524C179.489 5.59204 180.592 4.48851 182.005 4.12567C182.495 4 183.09 4 184.28 4H195V0H0V4Z" fill="black"/>
</svg>
